<svg width="24" height="24" viewBox="0 0 24 24" fill="none" xmlns="http://www.w3.org/2000/svg">
<path d="M17.537 12.625C17.5406 13.4879 17.7967 14.3309 18.2736 15.05C18.7505 15.7691 19.4275 16.333 20.221 16.672C19.8997 17.6823 19.4335 18.6406 18.837 19.517C18.003 20.735 17.137 21.949 15.775 21.974C14.436 21.999 14.006 21.18 12.475 21.18C10.944 21.18 10.466 21.949 9.2 22C7.884 22.049 6.883 20.682 6.042 19.468C4.323 16.984 3.01 12.451 4.772 9.391C5.18591 8.65062 5.78492 8.03037 6.51044 7.59092C7.23595 7.15148 8.06311 6.90789 8.911 6.884C10.203 6.859 11.422 7.753 12.211 7.753C13 7.753 14.482 6.678 16.039 6.836C16.7611 6.86094 17.4676 7.05311 18.1029 7.39737C18.7381 7.74164 19.2848 8.22862 19.7 8.82C19.0474 9.21968 18.5068 9.77839 18.1289 10.4438C17.7509 11.1093 17.548 11.8598 17.539 12.625M15.02 5.193C15.7752 4.30801 16.1491 3.15997 16.06 2C14.9204 2.11051 13.8663 2.65294 13.114 3.516C12.7386 3.93395 12.4512 4.4232 12.2689 4.95459C12.0866 5.48598 12.0132 6.04863 12.053 6.609C12.6231 6.61698 13.1874 6.49338 13.702 6.24779C14.2166 6.00221 14.6676 5.64126 15.02 5.193Z" fill="currentColor"/>
</svg>
