<svg width="24" height="24" viewBox="0 0 24 24" fill="none" xmlns="http://www.w3.org/2000/svg">
<g clip-path="url(#clip0_bank)">
<path d="M22.9125 6.30001L12.9 0.825006C12.3375 0.525006 11.6625 0.525006 11.1 0.825006L1.08749 6.30001C0.749994 6.48751 0.599994 6.86251 0.674994 7.23751C0.749994 7.61251 1.12499 7.91251 1.49999 7.91251H2.47499V18.3375C1.87499 18.75 1.49999 19.425 1.49999 20.2125V21.075C1.49999 22.35 2.54999 23.4 3.82499 23.4H20.175C21.45 23.4 22.5 22.35 22.5 21.075V20.2125C22.5 19.425 22.125 18.75 21.525 18.3375V7.91251H22.5C22.875 7.91251 23.2125 7.65001 23.325 7.27501C23.4 6.90001 23.25 6.48751 22.9125 6.30001ZM11.925 2.28751C11.9625 2.25001 12.0375 2.25001 12.075 2.28751L19.2 6.22501H4.79999L11.925 2.28751ZM7.68749 17.85V7.91251H16.0875V17.8875H7.68749V17.85ZM5.99999 7.91251V17.8875H4.16249V7.91251H5.99999ZM20.85 21.075C20.85 21.45 20.55 21.75 20.175 21.75H3.82499C3.44999 21.75 3.14999 21.45 3.14999 21.075V20.2125C3.14999 19.8375 3.44999 19.5375 3.82499 19.5375H20.175C20.55 19.5375 20.85 19.8375 20.85 20.2125V21.075ZM19.875 17.85H17.775V7.91251H19.875V17.85Z" fill="currentColor"/>
<path d="M12.2625 12.0375H11.25C11.0625 12.0375 10.9125 11.8875 10.9125 11.7C10.9125 11.5125 11.0625 11.3625 11.25 11.3625H13.4625C13.9125 11.3625 14.2875 10.9875 14.2875 10.5375C14.2875 10.0875 13.9125 9.71251 13.4625 9.71251H12.9375V9.52501C12.9375 9.07501 12.5625 8.70001 12.1125 8.70001C11.6625 8.70001 11.2875 9.07501 11.2875 9.52501V9.71251C10.1625 9.71251 9.2625 10.6125 9.2625 11.7375C9.2625 12.8625 10.1625 13.7625 11.2875 13.7625H12.3C12.4875 13.7625 12.6375 13.9125 12.6375 14.1C12.6375 14.2875 12.4875 14.4375 12.3 14.4375H10.0875C9.6375 14.4375 9.2625 14.8125 9.2625 15.2625C9.2625 15.7125 9.6375 16.0875 10.0875 16.0875H11.25V16.275C11.25 16.725 11.625 17.1 12.075 17.1C12.525 17.1 12.9 16.725 12.9 16.275V15.975C13.6875 15.7125 14.25 14.9625 14.25 14.0625C14.2875 12.9375 13.3875 12.0375 12.2625 12.0375Z" fill="currentColor"/>
</g>
<defs>
<clipPath id="clip0_bank">
<rect width="24" height="24" fill="white"/>
</clipPath>
</defs>
</svg>
